<svg xmlns="http://www.w3.org/2000/svg" xmlns:xlink="http://www.w3.org/1999/xlink" width="56" zoomAndPan="magnify" viewBox="0 0 42 33.749998" height="45" preserveAspectRatio="xMidYMid meet" version="1.0"><defs><clipPath id="ecf63cdee0"><path d="M 6.144531 7.460938 L 35.179688 7.460938 L 35.179688 26.820312 L 6.144531 26.820312 Z M 6.144531 7.460938 " clip-rule="nonzero"/></clipPath></defs><g clip-path="url(#ecf63cdee0)"><path fill="#000000" d="M 35.152344 7.757812 C 35.152344 7.742188 35.148438 7.734375 35.148438 7.722656 C 35.144531 7.703125 35.140625 7.683594 35.136719 7.664062 C 35.128906 7.644531 35.121094 7.628906 35.109375 7.609375 C 35.101562 7.601562 35.101562 7.589844 35.09375 7.582031 C 35.089844 7.574219 35.082031 7.574219 35.078125 7.566406 C 35.066406 7.550781 35.050781 7.539062 35.035156 7.527344 C 35.019531 7.515625 35.003906 7.503906 34.988281 7.496094 C 34.972656 7.488281 34.957031 7.484375 34.9375 7.480469 C 34.917969 7.472656 34.898438 7.46875 34.878906 7.46875 C 34.871094 7.464844 34.867188 7.460938 34.859375 7.460938 L 6.460938 7.460938 C 6.453125 7.460938 6.449219 7.464844 6.441406 7.46875 C 6.421875 7.46875 6.402344 7.472656 6.382812 7.480469 C 6.367188 7.484375 6.347656 7.488281 6.332031 7.496094 C 6.316406 7.503906 6.300781 7.515625 6.289062 7.527344 C 6.269531 7.539062 6.253906 7.550781 6.242188 7.566406 C 6.238281 7.574219 6.230469 7.574219 6.226562 7.578125 C 6.21875 7.589844 6.21875 7.601562 6.210938 7.609375 C 6.203125 7.628906 6.191406 7.644531 6.1875 7.664062 C 6.179688 7.683594 6.175781 7.703125 6.175781 7.722656 C 6.171875 7.734375 6.167969 7.746094 6.167969 7.757812 L 6.167969 26.527344 C 6.167969 26.5625 6.175781 26.601562 6.191406 26.636719 C 6.21875 26.710938 6.277344 26.765625 6.351562 26.796875 C 6.386719 26.8125 6.425781 26.820312 6.460938 26.820312 L 34.859375 26.820312 C 34.898438 26.820312 34.933594 26.8125 34.972656 26.796875 C 35.042969 26.765625 35.101562 26.710938 35.132812 26.636719 C 35.144531 26.601562 35.152344 26.5625 35.152344 26.527344 Z M 6.757812 8.34375 L 16.828125 15.832031 L 6.757812 25.816406 Z M 20.660156 17.949219 L 7.351562 8.050781 L 33.972656 8.050781 Z M 17.308594 16.1875 L 20.484375 18.546875 C 20.488281 18.554688 20.496094 18.550781 20.503906 18.554688 C 20.550781 18.585938 20.601562 18.605469 20.660156 18.605469 C 20.660156 18.605469 20.660156 18.609375 20.660156 18.609375 C 20.660156 18.609375 20.660156 18.605469 20.660156 18.605469 C 20.714844 18.605469 20.769531 18.585938 20.816406 18.554688 C 20.824219 18.550781 20.832031 18.554688 20.835938 18.546875 L 24.011719 16.1875 L 34.144531 26.234375 L 7.175781 26.234375 Z M 24.492188 15.832031 L 34.5625 8.34375 L 34.5625 25.816406 Z M 24.492188 15.832031 " fill-opacity="1" fill-rule="nonzero"/></g></svg>