<svg xmlns="http://www.w3.org/2000/svg" xmlns:xlink="http://www.w3.org/1999/xlink" width="37" zoomAndPan="magnify" viewBox="0 0 27.75 25.5" height="34" preserveAspectRatio="xMidYMid meet" version="1.0"><defs><clipPath id="5bdf15ac5a"><path d="M 0.144531 0 L 27 0 L 27 24.273438 L 0.144531 24.273438 Z M 0.144531 0 " clip-rule="nonzero"/></clipPath></defs><g clip-path="url(#5bdf15ac5a)"><path fill="#231f20" d="M 24 12.148438 C 24 12.625 24 13.109375 24 13.585938 C 24 16.910156 24 20.238281 24 23.558594 C 24 23.945312 23.667969 24.273438 23.277344 24.273438 C 22.5 24.273438 21.722656 24.273438 20.941406 24.273438 C 15.402344 24.273438 9.859375 24.273438 4.316406 24.273438 C 3.929688 24.273438 3.597656 23.945312 3.597656 23.558594 C 3.597656 23.082031 3.597656 22.597656 3.597656 22.121094 C 3.597656 18.796875 3.597656 15.46875 3.597656 12.148438 C 3.597656 11.222656 5.039062 11.230469 5.039062 12.148438 C 5.039062 12.625 5.039062 13.109375 5.039062 13.585938 C 5.039062 16.671875 5.039062 19.757812 5.039062 22.847656 C 5.578125 22.847656 6.113281 22.847656 6.65625 22.847656 C 11.957031 22.847656 17.257812 22.847656 22.558594 22.847656 C 22.558594 22.605469 22.558594 22.363281 22.558594 22.121094 C 22.558594 18.796875 22.558594 15.46875 22.558594 12.148438 C 22.558594 11.230469 24 11.230469 24 12.148438 Z M 26.671875 11.378906 C 23.050781 8.132812 19.4375 4.890625 15.824219 1.648438 C 15.308594 1.1875 14.800781 0.730469 14.289062 0.269531 C 13.992188 0 13.570312 0 13.269531 0.269531 C 9.640625 3.515625 6.011719 6.757812 2.382812 10 C 1.867188 10.460938 1.355469 10.917969 0.839844 11.378906 C 0.148438 11.996094 1.167969 13.007812 1.855469 12.390625 C 5.488281 9.148438 9.109375 5.90625 12.742188 2.664062 C 13.085938 2.355469 13.429688 2.050781 13.773438 1.738281 C 17.21875 4.832031 20.664062 7.921875 24.113281 11.007812 C 24.625 11.472656 25.132812 11.925781 25.648438 12.390625 C 26.335938 13 27.359375 11.996094 26.671875 11.378906 Z M 21.140625 4.128906 C 21.140625 3.84375 21.140625 3.5625 21.140625 3.28125 C 21.726562 3.28125 22.308594 3.28125 22.894531 3.28125 C 22.894531 4.558594 22.894531 5.835938 22.894531 7.113281 C 22.894531 8.03125 24.332031 8.035156 24.332031 7.113281 C 24.332031 5.597656 24.332031 4.085938 24.332031 2.566406 C 24.332031 2.179688 24.003906 1.851562 23.613281 1.851562 C 22.546875 1.851562 21.488281 1.851562 20.421875 1.851562 C 20.03125 1.851562 19.703125 2.179688 19.703125 2.566406 C 19.703125 3.085938 19.703125 3.605469 19.703125 4.128906 C 19.699219 5.050781 21.140625 5.050781 21.140625 4.128906 Z M 21.140625 4.128906 " fill-opacity="1" fill-rule="nonzero"/></g></svg>